<?xml version="1.0" standalone="no"?>
<!DOCTYPE svg PUBLIC "-//W3C//DTD SVG 20010904//EN"
 "http://www.w3.org/TR/2001/REC-SVG-20010904/DTD/svg10.dtd">
<svg version="1.0" xmlns="http://www.w3.org/2000/svg"
 width="2700.000000pt" height="1631.000000pt" viewBox="0 0 2700.000000 1631.000000"
 preserveAspectRatio="xMidYMid meet">

<g transform="translate(0.000000,1631.000000) scale(0.100000,-0.100000)"
fill="#000000" stroke="none">
<path d="M18225 16253 c-565 -28 -1367 -207 -2062 -459 -972 -352 -1870 -880
-2628 -1545 -174 -153 -478 -452 -635 -624 -678 -744 -1204 -1597 -1570 -2545
-116 -300 -322 -936 -340 -1051 -19 -121 -3 -141 146 -177 175 -44 204 -39
227 35 9 26 43 149 77 273 153 562 303 958 554 1460 649 1297 1678 2412 2900
3144 1120 671 2236 1018 3496 1087 266 14 908 14 1125 0 637 -43 1226 -170
1965 -424 458 -158 691 -255 979 -410 1055 -567 1982 -1375 2690 -2346 826
-1132 1328 -2516 1435 -3956 17 -233 17 -866 0 -1100 -18 -248 -30 -354 -70
-620 -191 -1253 -670 -2402 -1429 -3425 -728 -981 -1646 -1748 -2760 -2308
-912 -458 -1686 -674 -2780 -777 -1200 -113 -2367 55 -3490 502 -1137 453
-2102 1128 -2910 2038 -738 830 -1131 1501 -1535 2619 -62 174 -243 727 -255
783 -9 42 -39 63 -90 63 -49 0 -277 -40 -289 -51 -12 -11 3 -77 70 -319 190
-676 336 -1073 569 -1545 386 -781 896 -1485 1540 -2130 935 -935 2011 -1595
3265 -2003 493 -160 949 -259 1505 -326 405 -49 1209 -56 1700 -16 1524 126
2845 628 4080 1550 353 263 591 467 904 775 801 787 1396 1706 1856 2866 294
739 468 1550 515 2389 19 356 10 913 -21 1235 -99 1043 -352 1926 -820 2865
-319 640 -688 1193 -1156 1732 -137 159 -592 614 -751 751 -968 840 -2045
1410 -3277 1736 -773 205 -1287 263 -2265 259 -223 -1 -432 -3 -465 -5z"/>
<path d="M5257 9583 c-4 -3 -7 -547 -7 -1207 l0 -1201 88 -80 c48 -44 99 -88
114 -98 55 -34 135 -47 304 -47 167 0 217 9 234 40 11 20 14 169 4 195 -13 34
-64 47 -247 61 -100 8 -183 17 -186 19 -5 6 -31 1773 -31 2183 l0 142 -133 0
c-74 0 -137 -3 -140 -7z"/>
<path d="M8587 9583 c-4 -3 -7 -597 -7 -1320 l0 -1313 788 0 c456 1 825 5 877
11 114 13 178 42 246 111 62 63 85 111 99 204 15 110 12 978 -5 1186 -8 97
-17 189 -21 205 -22 91 -99 170 -197 202 -128 41 -179 44 -849 48 l-648 5 0
328 c0 290 -2 329 -16 334 -21 8 -259 8 -267 -1z m1166 -955 l547 -12 0 -678
0 -678 -703 0 -704 0 -6 178 c-16 414 -20 966 -8 1024 22 102 72 150 179 168
70 12 100 11 695 -2z"/>
<path d="M910 9390 c-446 -7 -518 -13 -591 -50 -20 -11 -78 -54 -129 -97 l-92
-78 5 -905 c5 -951 8 -1016 50 -1098 12 -23 56 -80 97 -126 l75 -85 1127 0
1128 -1 -5 43 c-3 23 -10 80 -15 126 -5 46 -12 86 -14 88 -2 3 -190 8 -418 13
-819 18 -968 21 -1323 30 -198 6 -372 10 -388 10 l-27 0 2 913 3 912 505 12
c278 6 712 16 965 22 253 6 508 11 567 11 70 0 109 4 114 12 9 14 33 240 27
251 -5 8 -1021 6 -1663 -3z"/>
<path d="M11827 9393 c-4 -3 -7 -555 -7 -1225 l0 -1218 1108 0 1108 0 87 89
c51 52 95 107 107 133 32 74 43 225 37 528 -6 300 -15 377 -54 459 -38 81 -43
144 -43 541 1 412 -2 433 -69 517 -21 26 -70 78 -109 116 l-70 67 -1044 0
c-575 0 -1048 -3 -1051 -7z m2035 -311 c4 -4 11 -136 14 -292 7 -302 0 -389
-34 -423 -26 -26 -107 -35 -432 -48 -461 -19 -1207 13 -1247 53 -31 32 -47
166 -47 413 -1 309 -6 298 124 306 129 9 1613 0 1622 -9z m-242 -1012 c257
-14 321 -33 359 -108 36 -71 46 -148 45 -352 0 -175 -3 -204 -25 -283 l-24
-88 -385 0 c-336 1 -1452 19 -1456 24 -1 1 -7 121 -14 267 -16 344 -4 434 60
482 37 27 163 47 355 57 248 12 871 12 1085 1z"/>
<path d="M2900 8787 l0 -143 853 -13 c468 -7 854 -15 856 -17 4 -3 11 -123 26
-406 l7 -128 -871 0 -871 0 0 -357 c0 -513 4 -529 152 -679 l92 -94 894 0 894
0 -6 23 c-3 13 -6 142 -6 288 -2 475 -19 1187 -30 1271 -24 179 -66 256 -170
308 -117 58 -225 67 -905 75 -280 3 -601 8 -712 11 l-203 5 0 -144z m1735
-1272 l0 -280 -275 3 c-354 4 -1143 22 -1148 27 -4 3 -15 179 -27 408 l-7 127
729 -2 728 -3 0 -280z"/>
<path d="M15645 8919 c-693 -8 -746 -15 -863 -122 -70 -64 -102 -151 -123
-332 -5 -49 -13 -411 -16 -802 l-5 -713 144 0 145 0 6 663 c4 364 10 739 14
833 l6 170 491 12 c270 7 548 12 618 12 l127 0 3 141 c2 78 1 142 -2 142 -3 1
-248 -1 -545 -4z"/>
<path d="M16519 8794 l-139 -138 0 -621 c0 -674 6 -781 45 -862 32 -64 138
-165 197 -187 80 -30 191 -34 864 -35 l670 -1 126 150 126 150 -4 92 c-3 51
-9 327 -14 613 -6 286 -15 554 -20 595 -26 201 -96 288 -260 328 -83 20 -293
31 -710 37 -228 3 -488 8 -578 11 l-163 6 -140 -138z m1174 -170 l397 -7 0
-678 0 -679 -699 0 -699 0 -8 158 c-10 205 -11 1119 -2 1154 6 19 19 30 45 39
49 16 274 28 438 23 72 -2 309 -7 528 -10z"/>
<path d="M22300 7940 l0 -990 139 0 139 0 6 193 c3 105 8 446 11 757 3 311 8
600 12 643 l6 77 696 -2 696 -3 8 -150 c4 -82 11 -456 15 -830 l7 -680 143 -3
143 -3 -1 248 c-2 457 -20 1247 -30 1328 -12 99 -43 192 -79 242 -39 53 -128
99 -232 118 -82 15 -319 22 -1366 39 l-313 5 0 -989z"/>
<path d="M6715 8914 c-200 -16 -286 -40 -359 -104 -105 -92 -125 -247 -126
-956 0 -562 18 -695 109 -785 30 -30 66 -54 106 -68 119 -45 200 -49 1033 -50
741 -1 782 0 781 16 0 10 -6 68 -12 128 l-12 110 -115 6 c-63 4 -428 10 -810
14 -382 4 -715 8 -740 10 l-45 3 -3 281 -2 281 871 0 872 0 -6 290 c-8 318
-17 406 -53 521 -30 95 -74 162 -138 210 -99 75 -234 90 -836 94 -256 1 -487
1 -515 -1z m861 -284 c207 -14 303 -27 331 -45 41 -27 55 -102 61 -312 l4
-193 -726 0 -726 0 0 193 c0 197 12 312 33 335 7 6 46 16 87 21 108 12 749 13
936 1z"/>
<path d="M18594 8907 c-4 -13 51 -178 95 -284 11 -27 43 -109 72 -183 60 -160
139 -359 296 -755 205 -516 271 -656 334 -709 25 -21 41 -26 86 -26 54 0 59 2
99 44 48 50 139 230 249 491 37 88 82 194 100 235 18 41 60 138 93 215 169
392 253 575 263 575 5 0 23 -21 39 -47 39 -60 226 -440 315 -638 37 -82 76
-170 87 -195 243 -540 309 -646 416 -669 29 -6 62 -11 73 -11 51 0 108 104
244 450 130 331 555 1465 555 1482 0 38 -56 47 -174 28 -120 -19 -141 -59
-410 -765 -122 -321 -251 -635 -261 -637 -22 -3 -160 279 -483 992 l-188 415
-195 3 -194 2 -22 -52 c-12 -29 -60 -141 -107 -248 -46 -107 -115 -269 -154
-360 -39 -91 -118 -275 -177 -410 -58 -135 -120 -278 -137 -317 -17 -40 -34
-73 -37 -73 -3 0 -33 67 -65 148 -390 975 -502 1226 -567 1274 -46 34 -234 53
-245 25z"/>
</g>
</svg>
